<?xml version="1.0" standalone="no"?>
<!DOCTYPE svg PUBLIC "-//W3C//DTD SVG 20010904//EN"
 "http://www.w3.org/TR/2001/REC-SVG-20010904/DTD/svg10.dtd">
<svg version="1.0" xmlns="http://www.w3.org/2000/svg"
 width="800.000000pt" height="800.000000pt" viewBox="0 0 800.000000 800.000000"
 preserveAspectRatio="xMidYMid meet">
<metadata>
Created by potrace 1.16, written by Peter Selinger 2001-2019
</metadata>
<g transform="translate(0.000000,800.000000) scale(0.100000,-0.100000)"
fill="#000000" stroke="none">
<path d="M7284 7939 c-49 -34 -101 -67 -115 -74 -46 -24 -362 -265 -469 -358
-232 -202 -579 -569 -739 -782 -29 -38 -56 -70 -60 -70 -4 0 -40 26 -81 59
-118 92 -403 271 -545 341 -392 194 -911 315 -1356 315 -437 0 -948 -118
-1349 -313 -127 -61 -430 -252 -560 -352 l-58 -44 -103 156 c-57 86 -140 204
-184 262 -113 149 -335 402 -346 395 -5 -3 -8 -1 -7 4 2 5 -44 52 -102 106
-104 96 -305 239 -408 290 -59 30 -204 87 -209 83 -1 -2 9 -57 23 -123 28
-134 61 -314 76 -419 6 -38 12 -153 14 -255 2 -153 -1 -201 -17 -275 -32 -151
-71 -236 -156 -341 l-46 -56 34 -27 c18 -14 60 -51 93 -81 32 -30 63 -54 68
-52 4 1 7 -2 6 -7 -2 -4 41 -60 94 -123 124 -146 226 -278 318 -413 82 -121
81 -100 10 -245 -43 -87 -130 -329 -160 -446 l-22 -82 -56 -7 c-49 -5 -180
-23 -302 -41 -229 -32 -421 -98 -441 -151 -11 -29 -5 -37 94 -153 108 -125
119 -139 161 -214 24 -42 45 -74 47 -72 4 5 6 -13 10 -89 3 -67 -16 -101 -104
-183 -39 -37 -121 -116 -180 -175 -60 -59 -119 -115 -133 -123 -37 -25 -32
-60 13 -83 96 -48 649 -144 736 -127 23 4 28 3 17 -4 -11 -7 4 -10 50 -10 36
0 70 -4 77 -8 7 -4 24 -52 38 -106 77 -287 214 -587 392 -856 107 -161 141
-205 309 -400 133 -154 385 -369 621 -528 71 -48 442 -234 548 -274 141 -54
344 -111 505 -143 l165 -32 36 -64 c20 -35 75 -138 123 -229 48 -91 99 -185
115 -210 15 -25 72 -129 126 -233 87 -166 123 -215 119 -164 -1 10 3 14 9 10
7 -4 8 0 3 13 -4 10 -4 15 0 11 4 -4 30 46 59 111 28 64 64 141 79 170 15 29
24 58 20 65 -4 7 -3 9 1 4 5 -4 36 57 70 135 34 79 77 175 97 213 19 39 45 96
57 127 21 52 26 58 60 64 102 18 229 49 340 85 68 21 128 39 133 39 22 0 284
118 418 187 307 160 598 388 845 663 348 388 559 776 702 1297 l18 63 38 0
c23 0 36 4 32 10 -3 6 1 7 10 4 30 -12 449 49 599 87 89 23 156 53 156 72 0 8
-2 9 -8 1 -20 -30 -116 -61 -299 -94 -73 -14 -111 -17 -123 -10 -10 6 -25 10
-32 9 -7 0 -4 -4 6 -8 17 -7 18 -8 3 -14 -21 -8 -30 7 -22 34 5 15 10 17 19
10 9 -8 13 -7 13 4 0 7 -5 13 -10 12 -5 -1 -11 13 -12 31 -1 22 3 32 13 32 11
0 12 -3 3 -14 -8 -10 -9 -16 -1 -21 6 -4 10 -3 9 2 -1 4 -1 10 1 13 1 3 3 16
6 30 3 19 2 21 -5 10 -15 -23 -20 -9 -14 37 3 23 10 41 16 40 6 -1 11 4 12 12
0 8 8 15 19 17 27 4 37 17 25 34 -9 13 -10 13 -6 -2 8 -23 -20 -31 -33 -10
-10 15 -11 15 -6 0 2 -9 -2 -22 -10 -29 -13 -11 -14 -9 -8 17 4 16 11 30 15
32 4 2 5 10 2 19 -4 10 -2 14 5 9 6 -3 13 -2 16 3 4 5 -8 7 -26 4 -32 -4 -32
-4 -13 12 11 9 13 13 5 9 -13 -7 -13 -5 -2 8 14 18 19 68 8 86 -3 6 -1 14 5
18 8 4 9 3 5 -4 -4 -7 -2 -12 3 -12 6 0 11 9 11 21 0 11 -4 17 -10 14 -5 -3
-10 1 -10 10 0 10 5 13 11 9 8 -5 10 0 6 17 -5 21 -3 24 22 25 25 1 32 -5 57
-59 30 -63 152 -197 229 -252 22 -16 56 -43 75 -59 24 -21 28 -24 15 -7 -11
13 -45 42 -75 64 -95 70 -198 183 -237 261 -32 63 -36 80 -37 151 -2 171 70
308 282 536 l53 57 -25 20 c-14 10 -38 24 -53 30 -60 25 -299 63 -514 84
l-226 22 -10 36 c-70 243 -145 440 -237 617 l-44 84 46 62 c125 171 414 498
567 644 l124 119 -13 49 c-8 28 -21 70 -30 95 -10 25 -35 117 -58 205 -35 140
-41 178 -46 306 -9 259 27 430 143 682 15 32 25 60 23 63 -3 2 -45 -24 -94
-57z m-6490 -562 c4 5 442 7 586 4 46 -2 257 -261 458 -562 l110 -166 -100
-89 c-107 -95 -171 -165 -315 -339 -93 -113 -280 -389 -328 -484 -14 -29 -30
-50 -34 -45 -4 5 -38 54 -76 109 -85 125 -197 270 -309 400 l-86 100 -1 100
c-1 130 1 306 6 425 14 331 16 452 7 498 -9 50 -9 51 17 54 14 2 33 0 42 -4 9
-4 19 -5 23 -1z m6366 -7 c1 -8 1 -226 1 -484 l-1 -470 -58 -60 c-102 -106
-350 -397 -442 -519 l-43 -58 -31 58 c-40 74 -75 126 -202 293 -91 122 -320
383 -342 392 -5 1 -37 29 -72 61 l-62 58 58 77 c81 108 373 437 496 559 l103
102 135 3 c335 7 460 4 460 -12z m-3013 -286 c451 -33 863 -166 1243 -400 216
-133 370 -259 558 -458 236 -249 333 -389 503 -729 68 -135 180 -430 168 -441
-2 -2 -74 0 -159 5 -85 4 -243 13 -350 18 -107 6 -218 11 -246 11 -47 0 -52 2
-58 25 -4 16 -11 23 -18 19 -6 -4 -8 -3 -5 4 10 15 -3 43 -16 35 -6 -4 -7 -1
-2 7 9 15 -54 152 -67 144 -4 -3 -6 1 -3 8 3 7 -18 45 -46 83 -50 69 -70 93
-54 66 5 -10 4 -12 -4 -7 -6 4 -9 11 -6 16 9 15 -15 51 -28 44 -7 -4 -9 -4 -5
1 4 4 -6 25 -23 47 -27 33 -33 37 -48 26 -14 -11 -14 -11 -4 3 11 13 2 28 -56
95 -67 77 -128 131 -144 126 -4 -1 -6 2 -5 7 4 13 -102 102 -113 95 -5 -3 -8
0 -7 8 2 7 -3 12 -10 10 -8 -1 -11 2 -8 7 10 16 -248 176 -266 165 -6 -4 -8
-3 -5 3 8 12 -61 46 -75 37 -6 -4 -8 -2 -5 3 9 14 -88 56 -130 57 -17 1 -29 3
-27 5 8 8 -128 62 -142 57 -8 -3 -13 -2 -10 3 3 4 -28 15 -70 25 -89 19 -108
20 -98 4 4 -7 3 -8 -5 -4 -6 4 -9 11 -6 16 7 11 -89 24 -172 25 -33 0 -59 3
-56 8 5 9 -231 9 -344 0 -51 -4 -80 -10 -76 -16 4 -6 1 -7 -6 -2 -7 4 -38 4
-68 0 -42 -5 -53 -9 -42 -17 11 -8 9 -8 -5 -4 -28 10 -107 -4 -99 -17 3 -6 1
-7 -5 -3 -16 9 -83 -4 -76 -15 3 -5 -2 -6 -10 -3 -8 3 -46 -8 -84 -25 -39 -17
-78 -31 -87 -31 -10 0 -13 -5 -9 -12 5 -7 3 -8 -5 -3 -17 10 -103 -24 -95 -37
4 -6 2 -8 -4 -5 -5 4 -17 4 -26 1 -14 -5 -14 -9 -4 -23 12 -14 11 -14 -4 -2
-15 11 -26 8 -80 -22 -54 -31 -129 -82 -89 -61 9 5 12 3 7 -5 -4 -6 -11 -9
-16 -6 -13 8 -41 -6 -33 -18 4 -6 1 -7 -6 -3 -16 10 -94 -41 -85 -56 4 -7 3
-8 -5 -4 -14 9 -43 -12 -35 -25 3 -5 -1 -6 -8 -4 -17 7 -130 -93 -122 -107 4
-6 2 -8 -3 -5 -10 6 -38 -18 -38 -32 0 -3 -4 -5 -9 -3 -12 4 -37 -19 -30 -29
3 -5 0 -8 -8 -7 -7 2 -12 -3 -10 -10 1 -6 -2 -11 -6 -10 -13 4 -163 -172 -156
-183 3 -5 0 -8 -7 -7 -15 4 -100 -122 -92 -135 3 -6 2 -7 -4 -4 -5 3 -19 -6
-30 -22 -36 -48 -105 -193 -99 -208 3 -8 2 -12 -3 -9 -11 7 -23 -22 -14 -36 3
-6 1 -8 -4 -5 -6 4 -15 -6 -21 -22 l-10 -28 -203 -7 c-196 -6 -400 -19 -521
-32 -50 -5 -58 -4 -58 10 0 33 124 345 195 491 108 222 227 397 399 589 172
191 208 227 346 338 187 149 338 247 539 348 277 138 652 240 976 264 243 18
237 18 472 0z m-112 -953 c77 -5 144 -6 149 -3 5 3 6 1 3 -5 -7 -11 160 -36
176 -26 6 4 7 1 2 -7 -6 -10 -1 -12 18 -8 15 3 24 2 22 -2 -7 -11 43 -22 58
-14 7 4 9 3 4 -1 -10 -11 83 -47 103 -40 8 4 11 3 7 -1 -9 -10 113 -55 126
-47 6 3 7 2 4 -4 -8 -12 141 -85 156 -77 7 4 9 4 5 -1 -10 -10 70 -68 83 -60
5 4 8 2 7 -3 -4 -13 112 -103 124 -96 5 3 7 0 6 -8 -2 -7 3 -12 10 -10 8 1 11
-2 8 -7 -3 -5 9 -20 28 -34 26 -20 36 -23 47 -14 11 10 11 9 2 -3 -10 -13 -3
-23 37 -58 27 -23 77 -78 111 -122 34 -44 66 -77 72 -73 5 3 7 1 4 -4 -4 -6 2
-21 12 -34 10 -13 38 -57 63 -96 25 -40 49 -69 53 -65 5 4 5 2 1 -5 -4 -7 5
-31 19 -54 15 -22 24 -43 21 -46 -3 -3 -178 -1 -388 6 -656 19 -2661 9 -2871
-15 l-59 -7 36 72 c20 39 52 96 71 126 38 58 42 70 23 59 -8 -4 -10 -3 -5 2 5
5 13 9 17 9 15 0 149 168 143 179 -3 6 -2 8 2 3 12 -10 46 23 38 37 -3 6 -2 8
2 3 12 -10 56 33 48 47 -3 6 -3 8 2 4 4 -4 14 -3 22 3 11 10 11 15 1 28 -11
14 -11 14 2 4 13 -10 26 -3 75 39 33 28 87 71 120 96 33 24 59 49 57 54 -1 5
2 7 7 4 13 -8 153 69 144 79 -5 4 -3 5 4 1 7 -4 39 7 72 24 99 49 348 130 456
147 55 8 140 18 189 20 59 3 84 8 75 14 -10 7 -6 8 11 4 14 -3 88 -9 165 -14z
m1160 -1031 c496 -13 501 -14 507 -45 3 -13 0 -30 -6 -37 -6 -6 -2 -6 8 2 17
13 19 13 14 0 -5 -16 -60 -21 -56 -5 2 6 6 9 11 7 13 -4 8 4 -15 24 -19 15
-20 16 -9 2 13 -17 8 -23 -13 -19 -5 1 -3 -6 5 -15 13 -16 5 -17 -136 -11
-676 30 -2058 31 -2900 2 -533 -19 -549 -19 -541 0 3 8 1 15 -4 15 -5 0 -11
-8 -13 -17 -4 -17 -5 -17 -6 -1 -1 19 32 41 44 30 5 -4 5 -2 2 4 -16 28 38 41
198 49 468 23 2254 32 2910 15z m-3702 -66 c-6 -17 -9 -17 -32 -5 -13 7 -18 6
-18 -3 0 -7 7 -13 15 -12 8 1 16 -10 18 -24 3 -21 2 -22 -7 -7 -13 22 -21 22
-36 -1 -9 -15 -8 -19 3 -19 7 0 11 4 8 9 -3 4 0 8 5 8 6 0 11 -3 11 -7 0 -17
-16 -29 -36 -29 -24 0 -25 25 -4 53 14 17 14 17 -7 0 -12 -11 -19 -25 -17 -32
3 -7 1 -16 -4 -19 -11 -7 -266 -37 -343 -41 -31 -1 -61 -5 -68 -9 -6 -4 -11
-2 -11 3 0 6 6 11 13 11 8 0 7 4 -3 10 -11 8 -7 9 14 4 21 -5 27 -4 22 5 -4 6
-14 11 -23 11 -10 0 -13 6 -9 16 3 9 6 20 6 25 0 5 7 9 16 9 8 0 13 4 10 8 -3
5 9 9 27 9 65 1 73 3 59 12 -8 5 8 6 39 3 33 -3 50 -1 46 5 -4 6 3 9 16 6 12
-2 63 0 112 5 141 13 184 12 178 -4z m5212 -4 c9 -8 15 -7 18 2 3 7 6 4 6 -7
1 -11 6 -27 11 -35 8 -11 9 -8 4 11 -3 15 -1 30 5 33 7 5 8 1 4 -11 -6 -16 -5
-17 12 -3 17 14 18 14 7 -7 -9 -16 -9 -24 0 -29 7 -4 8 -3 4 4 -4 7 -2 12 3
12 6 0 11 -6 11 -12 0 -7 3 -24 5 -38 5 -22 4 -22 -4 -5 -8 17 -10 17 -10 3
-1 -15 -12 -16 -98 -12 -196 10 -286 23 -305 44 -13 14 -15 20 -6 20 8 0 6 4
-4 11 -10 6 -15 16 -11 26 6 14 24 15 171 10 91 -4 171 -12 177 -17z m-1860
-20 c620 -12 1249 -36 1475 -55 96 -9 263 -22 370 -30 107 -7 242 -21 300 -30
125 -20 259 -61 267 -81 3 -9 -19 -40 -58 -82 -83 -88 -152 -185 -191 -269
-27 -60 -31 -79 -32 -158 0 -79 4 -97 28 -147 44 -88 240 -279 269 -261 5 3 7
1 4 -4 -4 -6 0 -14 9 -17 28 -11 12 -49 -31 -72 -97 -53 -314 -86 -835 -129
-269 -22 -397 -30 -780 -50 -743 -39 -2847 -39 -3595 0 -49 2 -151 7 -225 11
-189 8 -710 50 -925 75 -254 28 -425 75 -425 116 0 9 18 32 40 50 22 19 38 39
34 44 -3 5 0 8 8 7 7 -2 12 3 10 10 -1 6 1 11 5 10 11 -4 59 45 55 55 -1 5 1
6 5 4 5 -3 28 14 53 37 25 22 37 34 25 26 -20 -15 -20 -15 -1 8 11 12 22 20
24 17 8 -8 82 67 76 76 -2 4 1 11 7 15 8 5 9 3 4 -6 -5 -7 -4 -11 1 -7 5 3 17
21 28 41 31 58 16 126 -51 232 -30 49 -62 96 -71 104 -14 14 -15 13 -1 -5 13
-18 13 -19 -3 -7 -10 8 -16 17 -15 20 2 8 -92 132 -100 132 -3 0 2 -10 13 -22
l19 -23 -23 19 c-12 11 -20 21 -17 24 2 3 -5 16 -15 30 -11 13 -20 30 -20 36
0 6 5 4 10 -4 8 -13 10 -12 10 3 0 9 5 17 11 17 5 0 7 4 4 10 -4 6 1 7 11 3
12 -4 15 -3 10 5 -5 8 -1 10 10 5 12 -4 15 -3 10 5 -5 8 -1 10 10 5 10 -4 15
-2 11 3 -3 5 2 10 11 11 9 1 51 10 92 22 41 11 103 24 137 27 37 4 60 11 59
18 -2 6 -1 8 1 4 3 -5 21 -8 41 -8 21 0 32 4 25 8 -7 4 7 8 30 8 23 0 107 8
187 17 692 81 2251 123 3605 97z m2655 -57 c125 -23 175 -39 208 -66 9 -7 0
-23 -40 -66 -96 -104 -154 -175 -193 -241 -22 -36 -44 -68 -50 -72 -5 -4 -6
-8 -2 -8 4 0 -8 -14 -28 -31 -19 -17 -35 -36 -34 -43 0 -7 2 -7 6 2 2 6 10 9
15 6 6 -4 8 -2 4 4 -3 6 -2 13 4 17 16 10 22 -19 9 -51 -21 -51 -26 -105 -16
-156 4 -22 2 -28 -11 -29 -14 0 -14 -2 2 -8 20 -8 12 -18 -14 -17 -9 1 -15 12
-17 29 -2 25 0 27 15 15 14 -10 14 -9 -1 9 -13 14 -15 23 -7 28 7 4 7 11 2 18
-18 24 -23 50 -8 44 14 -5 36 10 36 25 0 4 -4 8 -10 8 -6 0 -9 -4 -7 -9 1 -5
-2 -9 -8 -10 -5 -1 -11 23 -12 51 -3 77 -9 127 -16 135 -12 11 15 34 27 24 8
-6 17 -6 26 1 12 8 12 9 -2 4 -10 -3 -20 -1 -23 5 -4 5 -11 7 -16 4 -5 -4 -9
1 -9 9 0 9 -6 16 -12 17 -8 0 -9 2 -2 5 6 2 8 18 6 35 -5 32 12 37 36 9 11
-13 11 -11 2 7 -6 13 -14 22 -18 22 -20 -3 -23 3 -11 18 8 9 9 14 4 11 -6 -4
-16 2 -23 12 -7 11 -8 21 -2 25 5 3 7 11 5 18 -2 7 -7 31 -9 55 -3 23 -7 46
-11 51 -3 5 -1 21 5 36 5 14 6 24 1 21 -14 -9 -21 20 -8 34 9 9 9 11 1 7 -7
-4 -15 0 -18 9 -7 19 13 17 224 -23z m-6995 -23 c3 -5 2 -10 -4 -10 -6 0 -7
-7 -4 -17 4 -11 3 -14 -6 -9 -8 5 -10 0 -7 -19 4 -23 2 -25 -17 -20 -19 5 -20
4 -5 -5 14 -8 16 -19 12 -48 -4 -20 -7 -52 -8 -69 0 -32 -20 -51 -31 -33 -4 6
-11 10 -17 10 -6 0 0 -9 13 -19 35 -27 35 -68 2 -104 -16 -17 -23 -27 -16 -23
6 3 14 0 17 -6 3 -8 5 -7 3 2 -1 9 2 15 7 15 10 0 9 -83 -1 -98 -3 -5 -9 -4
-13 3 -5 8 -10 9 -14 2 -3 -6 3 -13 14 -17 22 -7 26 -20 9 -31 -8 -4 -8 -9 -1
-13 7 -4 8 -12 1 -21 -8 -13 -10 -13 -19 0 -5 8 -8 21 -5 28 3 7 0 10 -5 7 -6
-3 -10 0 -10 9 0 8 -4 16 -8 18 -4 2 -18 20 -31 41 -13 21 -34 50 -48 65 -40
45 -134 155 -159 187 -36 47 -24 70 60 109 74 35 217 73 236 61 5 -3 10 -1 10
4 0 14 37 14 45 1z m-57 -787 c-6 -8 -7 -13 -1 -13 5 0 10 -7 10 -15 0 -8 -5
-12 -10 -8 -5 3 -6 -7 -2 -26 6 -27 4 -30 -12 -25 -17 5 -17 5 0 -6 9 -6 15
-15 12 -21 -3 -5 2 -6 12 -2 17 6 17 5 1 -13 -16 -17 -16 -19 -1 -36 10 -12
12 -18 4 -18 -7 0 -9 -5 -5 -12 13 -20 12 -52 0 -67 -8 -11 -8 -13 1 -8 6 4
14 3 17 -2 9 -14 -7 -21 -24 -11 -8 5 -19 3 -27 -6 -8 -8 -19 -11 -25 -8 -7 4
-8 2 -4 -4 4 -7 15 -8 30 -2 24 9 36 5 36 -12 0 -5 -5 -6 -12 -2 -6 4 -8 3 -4
-4 3 -6 2 -13 -3 -16 -16 -10 -1 -42 20 -43 19 -2 19 -1 -2 16 -15 12 -19 20
-11 25 7 4 12 2 12 -4 0 -6 6 -8 13 -4 6 4 9 4 5 -1 -4 -4 -3 -14 3 -22 9 -10
8 -17 -2 -30 -12 -14 -12 -16 0 -8 9 5 12 4 8 -2 -4 -6 0 -16 8 -23 12 -10 12
-15 -2 -36 -14 -22 -14 -24 1 -18 11 4 16 1 16 -10 0 -18 -16 -19 -80 -5 -25
5 -52 10 -60 11 -30 1 -176 29 -230 44 -96 26 -130 44 -130 71 0 12 4 23 10
23 5 0 63 53 128 118 134 132 229 222 237 222 10 0 0 -25 -14 -36 -11 -9 -12
-12 -1 -19 9 -6 11 -4 5 5 -6 10 -4 12 9 7 10 -4 15 -3 11 3 -3 6 0 10 7 10 8
0 9 3 3 8 -14 10 -12 21 11 59 19 32 19 32 31 10 8 -15 8 -26 1 -34z m6338
-451 c12 -8 15 -42 3 -42 -4 0 -6 -11 -3 -24 2 -14 0 -28 -6 -31 -5 -3 -10 2
-11 12 0 14 -2 14 -9 -4 -11 -27 -18 -28 -48 -8 -18 13 -21 13 -16 2 5 -15
-12 -18 -233 -33 -71 -5 -93 -4 -93 6 0 8 -10 11 -30 8 -16 -2 -31 0 -33 6 -2
6 -2 1 0 -11 2 -17 -1 -23 -14 -22 -10 0 -13 3 -6 5 7 3 10 11 7 19 -7 19 13
55 31 55 8 0 15 6 15 14 0 8 8 15 18 14 9 0 70 6 136 12 65 7 131 10 147 8 15
-3 25 0 22 5 -3 5 15 7 41 6 25 -2 48 0 52 4 9 9 16 9 30 -1z m-5751 -37 c-1
-19 2 -32 7 -29 4 3 5 10 2 16 -5 8 -1 9 12 5 19 -7 19 -7 0 8 -16 12 -17 15
-4 20 12 5 276 -15 356 -27 6 -1 12 -9 12 -19 0 -10 4 -20 9 -23 4 -3 6 6 3
19 -5 28 4 31 31 11 12 -9 14 -16 8 -21 -6 -3 -10 -14 -10 -23 1 -13 2 -13 6
2 4 17 7 15 19 -12 11 -26 19 -32 46 -33 18 0 27 -3 20 -6 -22 -9 -83 7 -76
19 4 6 3 8 -4 4 -6 -3 -15 1 -20 10 -8 15 -10 15 -15 0 -5 -11 -3 -15 5 -10 7
5 8 3 3 -6 -6 -10 -11 -9 -23 6 -13 16 -14 17 -9 2 7 -21 18 -21 -153 -8 -74
6 -147 11 -163 12 -17 2 -26 7 -23 15 3 7 -1 10 -9 6 -8 -3 -12 -10 -8 -17 4
-7 1 -7 -9 1 -8 7 -18 10 -21 6 -4 -3 -7 1 -7 11 0 9 -4 15 -9 11 -10 -5 -34
62 -26 74 2 4 14 7 27 8 22 2 24 -1 23 -32z m1165 -49 c1419 -32 2636 -30
3433 8 51 2 85 0 81 -5 -3 -5 0 -9 5 -9 6 0 11 -9 11 -21 0 -11 5 -17 10 -14
6 3 10 1 10 -5 0 -6 4 -9 9 -5 5 3 12 1 15 -4 4 -5 -2 -8 -11 -6 -10 1 -23 -2
-30 -7 -7 -6 -14 -5 -18 2 -4 7 -11 8 -18 2 -15 -11 48 -8 -527 -26 -846 -27
-2961 -16 -2994 15 -6 5 -15 9 -20 9 -6 0 -4 -5 4 -10 11 -7 3 -9 -27 -8 -27
1 -44 7 -48 16 -5 13 -3 13 12 1 16 -13 17 -12 4 4 -8 10 -20 16 -28 13 -15
-6 -16 -1 -4 23 8 14 5 17 -14 17 -15 0 -21 -5 -18 -13 6 -15 -21 -8 -46 11
-11 8 -13 8 -8 0 4 -7 -1 -18 -11 -25 -15 -13 -16 -12 -4 3 9 11 10 18 2 23
-14 8 -3 25 13 20 7 -2 104 -6 217 -9z m4400 -153 c-93 -308 -259 -626 -462
-887 -127 -163 -368 -404 -509 -508 -310 -229 -645 -392 -994 -483 -271 -70
-459 -95 -715 -95 -200 0 -332 12 -495 46 -300 61 -504 128 -719 236 -392 196
-651 398 -931 723 -125 146 -294 398 -360 538 -46 97 -175 424 -193 490 l-11
39 142 -9 c78 -4 203 -8 279 -8 75 0 131 -3 125 -7 -7 -4 48 -8 121 -8 82 0
132 -4 132 -10 0 -22 121 -264 156 -311 29 -40 39 -47 50 -38 8 6 11 16 7 22
-4 6 -1 7 6 3 9 -6 9 -12 -3 -25 -19 -21 -21 -35 -4 -25 7 4 8 3 4 -5 -12 -19
40 -81 64 -76 12 2 18 0 15 -6 -4 -5 -11 -7 -16 -4 -20 13 -8 -13 18 -36 14
-13 22 -17 18 -9 -7 12 -6 13 7 3 8 -7 17 -11 20 -8 2 3 5 -2 5 -10 0 -11 -4
-12 -14 -4 -27 23 -11 -8 28 -54 22 -26 45 -44 51 -41 6 4 8 2 5 -4 -9 -14
173 -184 190 -178 8 3 12 2 9 -3 -9 -14 181 -151 209 -151 3 0 3 5 -1 12 -4 7
-3 8 5 4 6 -4 9 -11 6 -16 -7 -12 50 -42 60 -32 5 4 5 2 2 -4 -8 -14 69 -58
85 -48 6 4 8 3 5 -3 -7 -12 144 -85 179 -87 12 0 20 -4 18 -7 -5 -9 105 -41
118 -33 6 4 8 3 5 -3 -4 -6 3 -13 16 -16 12 -3 65 -15 117 -27 352 -81 758
-62 1100 50 143 46 282 109 273 123 -3 6 -1 7 6 3 6 -4 55 19 114 53 100 59
147 89 118 75 -9 -5 -12 -3 -7 5 4 6 11 9 16 6 21 -13 366 287 354 307 -3 5
-1 7 4 6 11 -3 125 133 187 225 75 109 103 158 152 267 l48 109 45 2 c34 1 39
3 21 8 -13 3 43 5 125 4 94 -1 136 1 114 7 -23 5 -7 6 50 3 47 -2 168 2 270
10 102 7 187 12 189 10 2 -1 -11 -50 -29 -110z m-1005 50 c-5 -10 -8 -26 -9
-35 0 -9 -2 -15 -5 -12 -8 8 -61 -81 -56 -94 3 -8 0 -10 -7 -6 -8 5 -9 2 -5
-10 4 -10 3 -15 -3 -11 -11 7 -33 -32 -25 -45 3 -5 0 -12 -6 -16 -8 -4 -9 -3
-5 4 4 7 5 12 3 12 -7 0 -39 -51 -41 -66 -1 -7 -6 -17 -11 -21 -4 -4 -5 -1 0
7 12 23 -5 4 -68 -76 -57 -71 -69 -92 -44 -78 6 4 9 4 5 0 -3 -4 -8 -6 -11 -4
-10 6 -46 -35 -40 -46 3 -6 2 -8 -2 -3 -5 4 -30 -14 -57 -40 -46 -45 -47 -47
-30 -67 17 -21 17 -21 -5 -3 -21 18 -22 18 -52 -4 -17 -12 -28 -26 -25 -31 3
-5 0 -7 -8 -6 -7 2 -12 -2 -11 -9 2 -7 -3 -10 -10 -8 -6 2 -28 -10 -47 -27
-19 -17 -29 -27 -21 -23 9 6 12 4 7 -4 -4 -6 -11 -9 -15 -6 -12 7 -102 -60
-94 -70 5 -4 3 -5 -4 -2 -16 10 -44 -3 -36 -16 3 -5 1 -7 -5 -4 -15 10 -43 -3
-35 -16 3 -5 1 -7 -5 -3 -14 9 -83 -25 -75 -37 3 -6 1 -7 -5 -4 -12 8 -44 -2
-38 -12 3 -4 -3 -7 -12 -8 -33 -2 -142 -49 -135 -58 5 -4 2 -5 -5 -1 -14 8
-54 -2 -48 -12 2 -4 -6 -8 -17 -8 -35 -2 -208 -50 -202 -56 3 -3 -6 -3 -21 0
-20 4 -25 2 -19 -8 5 -8 4 -11 -3 -6 -13 8 -173 -4 -168 -13 6 -10 -332 6
-409 18 -99 17 -207 45 -324 86 -56 20 -107 33 -113 29 -6 -4 -8 -3 -5 2 8 13
-241 136 -256 128 -7 -4 -9 -4 -5 1 8 8 -118 97 -139 98 -7 0 -10 4 -7 8 6 10
-37 40 -47 33 -4 -2 -11 1 -15 7 -4 8 -3 9 4 5 7 -4 12 -5 12 -3 0 11 -109 85
-115 79 -5 -4 -5 -1 0 7 5 9 -12 33 -52 75 -32 33 -77 81 -98 106 -22 25 -43
44 -47 42 -5 -1 -7 2 -6 6 5 15 -90 144 -95 130 -3 -7 -5 -2 -4 12 1 16 -3 24
-11 22 -8 -1 -11 2 -7 8 8 12 -69 152 -79 143 -4 -4 -4 1 0 11 6 16 17 18 128
12 67 -3 609 -8 1206 -11 961 -5 1588 3 1994 24 23 1 27 -2 21 -16z m-1190
-2299 c-9 -21 -41 -92 -72 -156 l-57 -118 -50 0 c-273 -1 -559 0 -561 2 -1 2
-36 69 -78 151 l-77 147 82 -7 c137 -13 642 -7 738 9 47 8 86 13 88 12 1 0 -5
-18 -13 -40z"/>
<path d="M3770 6949 c-36 -4 -114 -13 -175 -20 -60 -6 -111 -12 -113 -14 -4
-3 56 -487 62 -492 4 -4 408 16 413 21 2 1 -2 30 -8 64 -9 50 -14 62 -28 58
-9 -2 -52 -8 -97 -11 -79 -7 -81 -6 -87 17 -12 44 -10 46 74 54 l81 7 -6 45
c-3 25 -6 51 -6 59 0 12 -11 14 -62 8 -35 -3 -71 -9 -80 -11 -13 -4 -19 3 -24
23 -3 15 -8 36 -10 45 -4 14 9 17 96 23 l101 8 -5 26 c-3 14 -8 43 -12 64 -7
41 -1 40 -114 26z"/>
<path d="M4640 6803 c-95 -16 -170 -66 -170 -114 0 -31 24 -70 70 -114 23 -22
46 -48 51 -58 16 -29 -26 -37 -112 -22 -41 7 -76 11 -78 9 -5 -4 -31 -117 -28
-121 11 -10 166 -24 222 -19 152 12 235 61 235 138 0 33 -7 45 -65 100 -49 47
-62 65 -53 75 14 17 50 16 115 -1 l53 -14 9 36 c26 97 29 88 -35 100 -55 12
-162 14 -214 5z"/>
<path d="M2687 6668 l-87 -43 160 -205 c89 -113 165 -209 169 -213 4 -4 49 12
100 35 l91 43 -67 85 c-169 214 -267 335 -272 338 -4 1 -46 -17 -94 -40z"/>
<path d="M4102 6523 c-6 -15 -13 -41 -14 -57 -3 -29 -2 -30 67 -42 39 -7 73
-13 77 -13 3 -1 9 13 12 29 19 97 22 87 -26 95 -24 3 -57 9 -74 11 -27 5 -32
2 -42 -23z"/>
<path d="M3267 6460 c-32 -10 -61 -21 -64 -23 -2 -3 7 -28 22 -57 19 -38 30
-50 43 -46 9 3 43 12 74 21 l57 16 -26 55 c-15 30 -32 54 -38 53 -5 0 -36 -8
-68 -19z"/>
<path d="M4851 6293 l-41 -48 63 -32 62 -31 42 41 c24 23 40 44 35 48 -4 4
-32 21 -63 38 l-57 32 -41 -48z"/>
<path d="M3617 5968 c-38 -8 -53 -17 -70 -43 -17 -26 -31 -35 -64 -40 l-43 -6
0 -143 0 -143 -79 5 c-92 5 -142 -8 -171 -46 -20 -25 -21 -37 -4 -94 5 -16 -5
-22 -88 -56 -44 -18 -188 -34 -242 -27 -28 4 -71 14 -94 22 -24 8 -46 12 -49
10 -6 -6 101 -88 153 -117 78 -45 175 -72 276 -77 99 -6 172 2 163 16 -2 5 3
8 13 7 12 -1 18 8 20 28 2 15 0 26 -5 23 -4 -3 -8 17 -9 44 -1 27 2 49 6 49 3
0 30 -7 58 -15 l52 -16 0 -59 c0 -33 3 -60 8 -60 4 0 94 7 201 15 172 13 200
13 238 0 24 -8 50 -15 58 -15 8 0 34 7 58 15 38 13 66 13 238 0 107 -8 197
-15 202 -15 4 0 7 29 7 64 l0 64 51 12 c27 7 52 10 54 8 2 -2 -2 -28 -10 -58
-20 -75 -20 -75 22 -95 30 -14 55 -17 147 -12 113 5 193 26 291 76 47 23 159
110 152 118 -3 2 -25 -2 -49 -10 -23 -8 -66 -18 -94 -22 -54 -7 -198 9 -242
27 -85 34 -93 40 -87 56 18 48 17 73 -4 96 -31 33 -87 48 -164 44 l-67 -3 0
148 0 147 -47 0 c-43 0 -50 4 -70 34 -18 27 -30 35 -79 44 -132 27 -257 9
-296 -41 l-17 -22 -16 23 c-27 37 -78 52 -174 51 -47 -1 -108 -6 -134 -11z
m260 -44 c46 -34 52 -69 52 -307 l1 -218 -28 21 c-26 19 -130 43 -155 35 -7
-2 -42 -6 -79 -9 l-68 -7 0 245 0 245 38 6 c20 4 42 8 47 11 6 2 45 2 87 1 60
-2 83 -7 105 -23z m391 10 l22 -6 0 -245 0 -245 -52 8 c-101 14 -191 8 -236
-15 l-42 -21 0 224 c0 157 4 233 12 252 22 47 79 66 183 60 50 -3 100 -9 113
-12z m90 -346 c-3 -219 -3 -222 -20 -191 -16 28 -18 61 -18 260 l1 228 20 -37
c18 -35 19 -55 17 -260z m-949 -24 l31 -6 0 -75 c0 -68 -2 -74 -17 -67 -10 5
-56 9 -102 10 -79 1 -85 2 -93 25 -5 13 -8 37 -6 54 5 52 89 78 187 59z m1220
-18 c21 -19 27 -63 12 -100 -6 -16 -19 -19 -99 -20 l-92 -1 0 67 c0 43 4 68
13 72 6 3 42 4 79 3 48 -2 72 -8 87 -21z m-764 -140 c19 -8 40 -26 47 -41 13
-29 5 -43 -16 -26 -10 9 -52 8 -177 -3 -90 -9 -164 -14 -165 -13 -2 1 7 20 19
42 26 46 44 52 175 54 52 1 95 -4 117 -13z m385 3 c45 -10 53 -15 71 -51 l20
-40 -48 6 c-149 18 -287 26 -297 16 -14 -14 -36 -12 -36 3 0 19 30 50 60 64
32 15 164 16 230 2z m-1026 -42 c5 -26 15 -37 42 -50 117 -56 -111 -70 -276
-17 -100 32 -101 36 -11 44 78 7 196 38 215 56 14 14 23 4 30 -33z m1501 13
c20 -14 92 -29 169 -36 87 -8 85 -12 -16 -45 -64 -20 -211 -42 -238 -35 -8 2
-27 7 -42 10 -39 9 -35 22 12 46 30 15 42 29 47 50 5 26 9 29 32 24 14 -4 31
-10 36 -14z"/>
<path d="M6215 4795 c-27 -19 -57 -40 -65 -48 -8 -8 -40 -30 -72 -49 l-56 -34
48 -64 48 -64 -19 -38 c-11 -21 -22 -38 -25 -38 -3 0 -2 6 2 13 4 7 3 9 -2 4
-5 -5 -9 -12 -9 -15 -1 -12 -35 -72 -41 -72 -3 0 -2 5 2 12 4 7 3 8 -5 4 -6
-4 -9 -10 -7 -14 6 -11 -111 -182 -119 -174 -4 4 -6 2 -5 -3 5 -21 0 -36 -10
-30 -6 4 -9 3 -8 -2 4 -15 -23 -54 -34 -47 -6 4 -8 3 -5 -3 4 -6 -1 -19 -9
-29 -9 -10 -12 -13 -8 -5 5 9 3 12 -5 7 -6 -4 -9 -11 -6 -15 6 -11 -40 -72
-49 -64 -4 4 -4 0 -1 -8 3 -9 -2 -22 -12 -30 -17 -13 -17 -13 -3 6 14 19 14
19 -2 6 -10 -7 -16 -17 -13 -21 3 -5 1 -11 -4 -14 -5 -3 -18 -22 -30 -42 -12
-19 -17 -32 -11 -29 5 3 11 1 11 -4 1 -6 2 -15 3 -20 0 -5 5 -13 10 -18 5 -5
6 -3 2 5 -16 28 3 9 29 -28 l27 -40 32 43 c17 23 47 68 66 100 19 32 44 68 54
79 11 12 41 53 68 92 70 104 79 117 118 166 20 25 49 64 64 88 16 24 32 45 36
47 11 7 91 -111 82 -120 -4 -5 -2 -5 4 -2 7 4 23 -15 39 -46 16 -29 70 -115
120 -192 123 -188 136 -211 127 -220 -4 -5 -2 -5 5 -1 7 3 14 -2 18 -13 5 -17
10 -19 31 -9 13 6 24 15 24 19 0 4 21 20 48 35 26 15 52 33 57 40 6 7 31 24
57 37 l48 25 -85 121 c-47 67 -85 125 -85 131 0 5 -4 10 -8 10 -5 0 -62 80
-128 178 -65 97 -121 179 -124 182 -5 5 -36 52 -120 183 -24 37 -44 67 -44 66
-1 0 -23 -15 -51 -34z"/>
<path d="M2795 4792 c-23 -2 -49 -12 -62 -24 -20 -19 -22 -29 -18 -87 10 -136
15 -442 8 -438 -5 3 -8 -82 -7 -189 0 -238 -7 -227 146 -225 75 1 109 6 132
19 17 9 33 20 34 25 2 4 7 5 11 2 5 -2 16 1 25 8 15 11 11 12 -23 9 l-41 -4 0
200 0 200 48 -5 c126 -12 232 -57 276 -116 15 -20 20 -43 20 -83 0 -42 3 -53
14 -49 7 3 16 5 18 5 3 0 2 5 -2 12 -4 6 -3 8 3 5 6 -4 25 0 42 9 17 8 35 12
41 9 6 -4 9 -1 8 6 -2 7 25 27 60 44 34 17 59 35 55 39 -4 4 0 4 10 0 22 -8
21 0 0 34 -26 40 -35 48 -96 81 -50 27 -75 36 -162 56 -29 7 -27 8 31 26 67
21 149 71 171 106 14 20 11 23 -47 52 -52 27 -65 30 -79 19 -14 -11 -14 -11
-3 4 11 14 10 17 -10 24 -13 4 -25 6 -27 5 -2 -2 -7 1 -10 6 -3 5 -30 21 -58
36 l-53 27 20 -32 c25 -41 28 -129 5 -148 -8 -7 -15 -17 -15 -23 0 -16 -54
-58 -68 -52 -7 3 -10 1 -7 -5 6 -10 -55 -29 -132 -39 l-53 -8 0 195 0 195 63
-6 62 -5 -45 23 c-25 13 -48 21 -52 18 -5 -2 -8 0 -8 5 0 9 -68 35 -85 32 -6
-1 -12 -2 -15 -1 -11 4 -87 6 -125 3z"/>
<path d="M4721 4774 l-24 -20 0 -447 c0 -429 0 -448 19 -462 14 -11 52 -14
153 -15 l134 0 -7 63 c-3 34 -9 119 -13 190 l-6 127 51 0 c44 0 54 -4 69 -26
10 -14 33 -39 50 -56 18 -17 30 -34 28 -39 -3 -4 0 -11 6 -15 8 -5 9 -3 4 7
-14 24 8 -2 55 -66 24 -33 60 -78 80 -100 19 -22 48 -61 64 -86 l30 -47 90 75
c49 41 102 81 118 89 l29 15 -30 34 c-16 19 -83 86 -147 150 -64 63 -115 117
-113 119 2 2 27 15 55 29 111 56 158 168 122 291 -14 45 -98 138 -136 150 -12
4 -22 11 -22 16 0 4 -6 7 -12 7 -7 -1 -38 4 -68 11 -30 7 -167 16 -305 20
-244 7 -250 6 -274 -14z m381 -74 c91 -26 168 -122 168 -209 -1 -101 -61 -170
-178 -202 -120 -34 -112 -45 -112 145 0 89 3 191 7 226 l6 62 36 -6 c20 -3 53
-11 73 -16z"/>
<path d="M1066 4771 c-18 -20 -20 -39 -20 -225 -1 -112 2 -202 7 -199 4 2 7
-14 7 -37 0 -23 -3 -39 -7 -37 -5 3 -8 -89 -7 -204 0 -194 2 -210 20 -224 14
-11 52 -14 157 -15 l139 0 -6 28 c-6 28 -26 277 -26 325 0 26 2 27 48 27 42 0
52 -4 85 -38 21 -21 35 -41 32 -45 -3 -4 -2 -5 2 -2 8 6 39 -37 35 -48 -1 -5
2 -6 8 -2 5 3 10 2 10 -3 0 -5 18 -29 40 -54 21 -25 37 -48 35 -52 -3 -3 -2
-4 1 -2 4 3 27 -23 52 -57 76 -103 97 -125 108 -113 6 6 30 27 54 46 23 19 56
47 74 61 17 15 45 35 63 46 l31 19 -149 149 -150 149 48 22 c96 42 143 114
143 219 0 104 -48 176 -150 229 -73 38 -141 47 -410 53 -252 6 -255 6 -274
-16z m399 -76 c97 -28 155 -106 155 -207 0 -106 -72 -181 -198 -207 -96 -20
-92 -23 -92 77 0 49 3 151 7 226 l6 138 36 -6 c20 -3 59 -12 86 -21z"/>
<path d="M2173 4768 c-13 -15 -16 -77 -17 -478 l-1 -460 136 0 c115 0 139 3
150 17 11 13 14 102 15 477 l1 461 -134 0 c-114 0 -137 -3 -150 -17z"/>
<path d="M3936 4760 c1 -14 3 -26 4 -27 1 -2 3 -7 4 -12 0 -5 5 -13 10 -18 6
-5 6 -2 1 7 -8 13 -7 13 8 1 18 -14 22 -22 10 -19 -5 0 -19 -4 -33 -10 -14 -6
-20 -11 -13 -11 7 -1 18 -11 24 -23 11 -20 10 -21 -3 -11 -11 9 -17 10 -26 1
-8 -8 -6 -22 9 -52 l20 -41 -21 24 c-15 17 -20 19 -20 8 0 -9 4 -18 9 -22 10
-6 9 -44 -1 -60 -3 -6 -7 -23 -7 -40 -1 -16 -3 -42 -4 -57 -1 -15 -4 -25 -8
-22 -4 2 -7 -9 -7 -26 1 -41 -5 -44 -41 -25 l-31 16 0 -36 0 -36 31 16 c36 19
40 17 44 -27 2 -18 4 -33 5 -33 1 0 4 -17 5 -38 2 -22 6 -41 9 -44 3 -4 1 -12
-5 -20 -9 -10 -8 -13 5 -13 13 0 15 -4 8 -17 -5 -10 -5 -29 -1 -43 9 -25 9
-25 5 2 -2 15 1 25 6 22 5 -3 6 -23 3 -45 -7 -39 13 -87 30 -71 5 4 5 1 1 -5
-10 -19 -26 -16 -27 5 0 9 -3 12 -5 5 -3 -7 -1 -20 5 -31 7 -13 7 -22 -1 -30
-8 -8 -8 -12 -1 -12 6 0 13 -13 17 -30 l6 -30 237 -1 c131 0 264 -1 296 -2 31
-1 57 -1 57 0 0 2 -12 25 -27 52 l-28 50 -67 3 c-36 2 -64 0 -61 -4 2 -5 -54
-8 -125 -8 l-130 0 -7 215 c-4 119 -4 291 1 383 l9 167 172 3 172 2 21 47 c11
25 20 46 20 47 0 0 -127 1 -283 1 l-284 0 3 -25z"/>
<path d="M4307 4478 c-10 -10 -23 -16 -30 -12 -7 4 -9 4 -5 -1 10 -11 -39 -48
-53 -39 -8 4 -9 3 -5 -4 4 -7 2 -12 -4 -12 -6 0 -26 -11 -44 -25 -18 -14 -36
-22 -41 -17 -5 4 -5 1 -1 -5 4 -8 2 -13 -6 -13 -7 0 30 -42 82 -93 l95 -93 80
60 c44 34 90 68 102 76 22 15 22 16 -65 106 -85 88 -88 90 -105 72z"/>
<path d="M6180 4181 c0 -6 -41 -50 -91 -100 l-90 -90 72 -58 c39 -32 83 -68
97 -81 25 -23 26 -23 42 -4 8 10 44 41 79 68 35 27 71 55 80 62 14 11 12 16
-19 45 -19 18 -63 63 -98 100 -65 68 -72 74 -72 58z"/>
<path d="M2305 2429 c-60 -82 -116 -158 -123 -168 -11 -17 -8 -22 38 -51 28
-18 77 -43 109 -56 60 -24 178 -44 169 -28 -4 5 9 9 26 10 42 1 103 38 127 78
23 38 24 81 3 132 -18 42 -122 149 -194 200 l-45 32 -110 -149z m225 -110 c0
-32 -43 -78 -75 -80 -34 -2 -77 2 -96 9 -15 6 -9 19 44 90 l62 83 33 -37 c19
-23 32 -48 32 -65z"/>
<path d="M5253 2474 c-3 -8 -2 -42 1 -75 4 -32 11 -127 15 -210 5 -82 11 -152
14 -155 3 -3 33 -2 67 2 l62 7 -6 45 c-7 49 -11 43 81 107 l51 36 42 -21 c23
-12 44 -20 46 -18 7 7 55 121 52 123 -2 2 -37 16 -78 33 -41 16 -135 55 -208
85 -108 45 -134 53 -139 41z"/>
<path d="M2653 2146 l-92 -185 112 -60 112 -60 22 42 c12 23 22 45 23 49 0 3
-24 19 -54 34 -50 25 -53 29 -43 51 11 25 25 24 79 -3 27 -14 28 -13 48 27 12
22 20 42 18 44 -2 1 -22 12 -46 24 l-42 22 15 30 16 30 53 -30 53 -29 22 45
c12 25 20 47 19 49 -5 5 -212 104 -218 104 -3 0 -47 -83 -97 -184z"/>
<path d="M4938 2269 c-32 -16 -58 -32 -58 -34 0 -10 180 -365 185 -365 3 0 56
26 119 57 l114 57 -24 48 c-13 26 -28 48 -32 48 -4 0 -27 -11 -51 -25 -23 -14
-46 -25 -50 -25 -7 0 -75 133 -112 218 -12 28 -25 52 -28 52 -3 -1 -32 -14
-63 -31z"/>
<path d="M4671 2154 c-30 -13 -56 -26 -58 -28 -2 -2 13 -41 33 -87 20 -46 52
-133 71 -192 22 -67 40 -107 47 -104 6 3 61 24 121 48 61 23 111 43 112 44 3
1 -28 105 -32 105 -2 0 -24 -9 -50 -20 -26 -11 -52 -20 -58 -20 -12 0 -33 47
-64 140 -20 62 -55 140 -62 139 -3 0 -31 -11 -60 -25z"/>
<path d="M4476 2095 c-27 -8 -52 -19 -56 -25 -7 -11 -131 -30 -304 -45 l-78
-7 6 -51 c4 -29 9 -53 10 -54 2 -2 27 1 56 7 64 12 67 9 75 -70 13 -132 25
-223 29 -227 7 -7 136 19 136 28 0 4 -7 57 -15 116 -8 59 -17 122 -19 140 -4
28 -2 32 25 37 101 20 92 13 85 65 -7 60 1 33 49 -171 20 -87 39 -158 41 -158
3 0 34 7 70 16 63 16 65 18 59 43 -36 153 -100 371 -109 370 -6 0 -33 -7 -60
-14z"/>
<path d="M3225 2090 c-90 -18 -173 -70 -199 -124 -52 -110 15 -218 168 -269
77 -26 83 -24 101 35 8 28 15 53 15 54 0 1 -17 5 -38 9 -81 13 -123 60 -108
120 9 37 45 55 117 57 l64 3 7 35 c4 19 7 47 7 63 1 26 -1 27 -46 26 -27 -1
-66 -5 -88 -9z"/>
<path d="M3501 1958 c-45 -56 -96 -121 -114 -143 -18 -22 -43 -57 -55 -77
l-23 -37 43 -29 c24 -16 49 -32 55 -36 8 -5 19 5 30 28 18 39 21 40 122 30 60
-7 63 -8 83 -48 11 -23 21 -42 23 -44 1 -1 29 10 63 25 l61 28 -83 170 c-45
94 -92 185 -103 203 l-21 34 -81 -104z"/>
<path d="M3940 2021 c-88 -27 -148 -79 -157 -135 -5 -33 -2 -41 28 -72 18 -19
37 -34 42 -34 5 0 22 -10 39 -21 26 -19 28 -23 15 -36 -8 -8 -33 -17 -56 -20
-22 -3 -41 -7 -41 -9 0 -2 5 -26 11 -53 10 -50 11 -50 42 -44 106 21 197 95
197 159 0 53 -14 71 -82 105 -58 29 -61 32 -43 45 11 8 36 17 57 21 21 3 38 7
38 10 0 2 -5 24 -11 49 -12 47 -23 52 -79 35z"/>
</g>
</svg>
